<mxfile host="app.diagrams.net" modified="2023-09-19T12:36:24.423Z" agent="Mozilla/5.0 (Macintosh; Intel Mac OS X 10_15_7) AppleWebKit/537.36 (KHTML, like Gecko) Chrome/116.0.0.0 Safari/537.36" version="21.7.4" etag="Vk243K1KUh_4QVdnTLGm" type="github">
  <diagram name="Page-1" id="Ap1YHezl1sdT1LeEGuHs">
    <mxGraphModel>
      <root>
        <mxCell id="0" />
        <mxCell id="1" parent="0" />
      </root>
    </mxGraphModel>
  </diagram>
</mxfile>
